<svg xmlns="http://www.w3.org/2000/svg" viewBox="0 0 400 300">
  <!-- Sky background -->
  <rect x="0" y="0" width="400" height="200" fill="#87CEEB"/>
  
  <!-- Sun -->
  <circle cx="350" cy="50" r="30" fill="#FFD700"/>
  
  <!-- Sand -->
  <path d="M0 200 Q 100 180 200 200 Q 300 220 400 200 L 400 300 L 0 300 Z" fill="#F4A460"/>
  
  <!-- Waves -->
  <path d="M0 190 Q 50 170 100 190 Q 150 210 200 190 Q 250 170 300 190 Q 350 210 400 190" fill="none" stroke="#4682B4" stroke-width="5"/>
  
  <!-- Crab body -->
  <ellipse cx="200" cy="220" rx="70" ry="60" fill="#FF6347"/>
  <circle cx="200" cy="220" r="60" fill="#FF4500"/>
  
  <!-- Eyes -->
  <g transform="rotate(-10 180 190)">
    <rect x="170" y="180" width="20" height="40" fill="#FF4500" rx="10"/>
    <circle cx="180" cy="180" r="12" fill="white"/>
    <circle cx="180" cy="180" r="6" fill="black"/>
  </g>
  <g transform="rotate(10 220 190)">
    <rect x="210" y="180" width="20" height="40" fill="#FF4500" rx="10"/>
    <circle cx="220" cy="180" r="12" fill="white"/>
    <circle cx="220" cy="180" r="6" fill="black"/>
  </g>
  
  <!-- Smile -->
  <path d="M185 230 Q 200 240 215 230" fill="none" stroke="white" stroke-width="3" stroke-linecap="round"/>
  
  <!-- Claws -->
  <path d="M130 220 Q 100 200 85 170 Q 80 160 90 155 Q 100 150 105 160 Q 110 170 120 180" fill="#FF4500"/>
  <path d="M270 220 Q 300 200 315 170 Q 320 160 310 155 Q 300 150 295 160 Q 290 170 280 180" fill="#FF4500"/>
  
  <!-- Legs -->
  <path d="M160 270 Q 150 290 130 300" stroke="#FF4500" stroke-width="8" fill="none"/>
  <path d="M180 275 Q 175 295 170 310" stroke="#FF4500" stroke-width="8" fill="none"/>
  <path d="M220 275 Q 225 295 230 310" stroke="#FF4500" stroke-width="8" fill="none"/>
  <path d="M240 270 Q 250 290 270 300" stroke="#FF4500" stroke-width="8" fill="none"/>
  
  <!-- Mail envelope -->
  <g transform="rotate(-5 200 210)">
    <rect x="170" y="200" width="80" height="50" fill="white" stroke="#333" stroke-width="2" rx="5"/>
    <path d="M170 200 L210 230 L250 200" fill="none" stroke="#333" stroke-width="2"/>
    <rect x="190" y="215" width="40" height="5" fill="#333"/>
    <rect x="190" y="225" width="30" height="5" fill="#333"/>
  </g>
  
  <!-- Bubbles -->
  <circle cx="100" cy="50" r="10" fill="rgba(255,255,255,0.5)"/>
  <circle cx="120" cy="80" r="6" fill="rgba(255,255,255,0.5)"/>
  <circle cx="90" cy="100" r="8" fill="rgba(255,255,255,0.5)"/>
  <circle cx="300" cy="70" r="12" fill="rgba(255,255,255,0.5)"/>
  <circle cx="330" cy="100" r="7" fill="rgba(255,255,255,0.5)"/>
</svg>