<svg xmlns="http://www.w3.org/2000/svg" viewBox="0 0 800 600">
  <!-- Background -->
  <rect width="800" height="600" fill="#f0f4f8"/>
  
  <!-- Large envelope -->
  <path d="M100 150 L400 350 L700 150 L700 500 L100 500 Z" fill="#ffffff" stroke="#4a5568" stroke-width="8"/>
  <path d="M100 150 L400 350 L700 150" fill="none" stroke="#4a5568" stroke-width="8"/>
  
  <!-- Flying emails -->
  <g transform="translate(200, 100) rotate(-15)">
    <rect width="120" height="80" fill="#ebf8ff" stroke="#3182ce" stroke-width="4"/>
    <path d="M0 0 L60 50 L120 0" fill="none" stroke="#3182ce" stroke-width="4"/>
  </g>
  <g transform="translate(500, 80) rotate(15)">
    <rect width="120" height="80" fill="#e6fffa" stroke="#319795" stroke-width="4"/>
    <path d="M0 0 L60 50 L120 0" fill="none" stroke="#319795" stroke-width="4"/>
  </g>
  
  <!-- Charts and graphs -->
  <g transform="translate(250, 400)">
    <!-- Bar chart -->
    <rect x="0" y="0" width="20" height="60" fill="#4299e1"/>
    <rect x="30" y="20" width="20" height="40" fill="#4299e1"/>
    <rect x="60" y="10" width="20" height="50" fill="#4299e1"/>
  </g>
  <g transform="translate(450, 400)">
    <!-- Pie chart -->
    <path d="M0 0 L50 0 A50 50 0 0 1 35.4 35.4 Z" fill="#48bb78"/>
    <path d="M0 0 L35.4 35.4 A50 50 0 0 1 -35.4 35.4 Z" fill="#ecc94b"/>
    <path d="M0 0 L-35.4 35.4 A50 50 0 0 1 -50 0 Z" fill="#ed64a6"/>
  </g>
  
  <!-- Cursor -->
  <g transform="translate(600, 300)">
    <path d="M0 0 L20 60 L30 50 L40 80 L50 75 L40 45 L50 40 Z" fill="#2d3748"/>
  </g>
  
  <!-- Decorative circles -->
  <circle cx="100" cy="100" r="20" fill="#fed7d7" opacity="0.6"/>
  <circle cx="720" cy="520" r="30" fill="#fefcbf" opacity="0.6"/>
  <circle cx="680" cy="80" r="25" fill="#c6f6d5" opacity="0.6"/>
</svg>